<mxfile host="app.diagrams.net" agent="Mozilla/5.0 (Windows NT 10.0; Win64; x64) AppleWebKit/537.36 (KHTML, like Gecko) Chrome/130.0.0.0 Safari/537.36" version="24.8.4">
  <diagram name="Page-1" id="Ya580sgnpsiJJGxzpUvL">
    <mxGraphModel dx="2607" dy="1342" grid="1" gridSize="10" guides="1" tooltips="1" connect="1" arrows="1" fold="1" page="1" pageScale="1" pageWidth="850" pageHeight="1100" math="0" shadow="0">
      <root>
        <mxCell id="0" />
        <mxCell id="1" parent="0" />
        <mxCell id="UxdINbvIdKSNyS2KtXZi-69" style="rounded=0;orthogonalLoop=1;jettySize=auto;html=1;exitX=1;exitY=0.3333333333333333;exitDx=0;exitDy=0;exitPerimeter=0;entryX=0;entryY=0.5;entryDx=0;entryDy=0;endArrow=none;endFill=0;" edge="1" parent="1" source="UxdINbvIdKSNyS2KtXZi-13" target="UxdINbvIdKSNyS2KtXZi-15">
          <mxGeometry relative="1" as="geometry" />
        </mxCell>
        <mxCell id="UxdINbvIdKSNyS2KtXZi-70" style="rounded=0;orthogonalLoop=1;jettySize=auto;html=1;exitX=1;exitY=0.3333333333333333;exitDx=0;exitDy=0;exitPerimeter=0;entryX=0;entryY=0.5;entryDx=0;entryDy=0;endArrow=none;endFill=0;" edge="1" parent="1" source="UxdINbvIdKSNyS2KtXZi-13" target="UxdINbvIdKSNyS2KtXZi-14">
          <mxGeometry relative="1" as="geometry" />
        </mxCell>
        <mxCell id="UxdINbvIdKSNyS2KtXZi-13" value="Professor&lt;br&gt;Fatec" style="shape=umlActor;verticalLabelPosition=bottom;verticalAlign=top;html=1;outlineConnect=0;" vertex="1" parent="1">
          <mxGeometry x="40" y="520" width="40" height="80" as="geometry" />
        </mxCell>
        <mxCell id="UxdINbvIdKSNyS2KtXZi-17" style="rounded=0;orthogonalLoop=1;jettySize=auto;html=1;exitX=1;exitY=0;exitDx=0;exitDy=0;entryX=0;entryY=0.5;entryDx=0;entryDy=0;dashed=1;" edge="1" parent="1" source="UxdINbvIdKSNyS2KtXZi-14" target="UxdINbvIdKSNyS2KtXZi-16">
          <mxGeometry relative="1" as="geometry" />
        </mxCell>
        <mxCell id="UxdINbvIdKSNyS2KtXZi-18" value="&amp;lt;&amp;lt;INCLUIR&amp;gt;&amp;gt;" style="edgeLabel;html=1;align=center;verticalAlign=middle;resizable=0;points=[];rotation=357;" vertex="1" connectable="0" parent="UxdINbvIdKSNyS2KtXZi-17">
          <mxGeometry x="-0.2976" relative="1" as="geometry">
            <mxPoint x="17" y="-1" as="offset" />
          </mxGeometry>
        </mxCell>
        <mxCell id="UxdINbvIdKSNyS2KtXZi-14" value="&lt;span style=&quot;font-size: 14px;&quot;&gt;Nova Justificativa de Faltas&lt;/span&gt;" style="ellipse;whiteSpace=wrap;html=1;" vertex="1" parent="1">
          <mxGeometry x="200" y="600" width="120" height="80" as="geometry" />
        </mxCell>
        <mxCell id="UxdINbvIdKSNyS2KtXZi-25" style="edgeStyle=orthogonalEdgeStyle;rounded=0;orthogonalLoop=1;jettySize=auto;html=1;exitX=1;exitY=0.5;exitDx=0;exitDy=0;entryX=0;entryY=0.5;entryDx=0;entryDy=0;dashed=1;" edge="1" parent="1" source="UxdINbvIdKSNyS2KtXZi-15" target="UxdINbvIdKSNyS2KtXZi-23">
          <mxGeometry relative="1" as="geometry" />
        </mxCell>
        <mxCell id="UxdINbvIdKSNyS2KtXZi-27" value="&amp;lt;&amp;lt;INCLUIR&amp;gt;&amp;gt;" style="edgeLabel;html=1;align=center;verticalAlign=middle;resizable=0;points=[];" vertex="1" connectable="0" parent="UxdINbvIdKSNyS2KtXZi-25">
          <mxGeometry x="-0.0607" y="-1" relative="1" as="geometry">
            <mxPoint y="-2" as="offset" />
          </mxGeometry>
        </mxCell>
        <mxCell id="UxdINbvIdKSNyS2KtXZi-15" value="&lt;span style=&quot;font-size: 14px;&quot;&gt;Nova Reposição de Aulas&lt;/span&gt;" style="ellipse;whiteSpace=wrap;html=1;" vertex="1" parent="1">
          <mxGeometry x="200" y="440" width="120" height="80" as="geometry" />
        </mxCell>
        <mxCell id="UxdINbvIdKSNyS2KtXZi-16" value="&lt;span style=&quot;font-size: 14px;&quot;&gt;Confirmar Dados da Justificativa&lt;/span&gt;" style="ellipse;whiteSpace=wrap;html=1;" vertex="1" parent="1">
          <mxGeometry x="440" y="560" width="120" height="80" as="geometry" />
        </mxCell>
        <mxCell id="UxdINbvIdKSNyS2KtXZi-20" style="rounded=0;orthogonalLoop=1;jettySize=auto;html=1;exitX=0;exitY=0.5;exitDx=0;exitDy=0;dashed=1;" edge="1" parent="1" source="UxdINbvIdKSNyS2KtXZi-19" target="UxdINbvIdKSNyS2KtXZi-14">
          <mxGeometry relative="1" as="geometry" />
        </mxCell>
        <mxCell id="UxdINbvIdKSNyS2KtXZi-21" value="&amp;lt;&amp;lt;EXTENDER&amp;gt;&amp;gt;" style="edgeLabel;html=1;align=center;verticalAlign=middle;resizable=0;points=[];rotation=23;" vertex="1" connectable="0" parent="UxdINbvIdKSNyS2KtXZi-20">
          <mxGeometry x="0.02" y="-1" relative="1" as="geometry">
            <mxPoint x="10" y="5" as="offset" />
          </mxGeometry>
        </mxCell>
        <mxCell id="UxdINbvIdKSNyS2KtXZi-19" value="&lt;span style=&quot;font-size: 14px;&quot;&gt;Alterar Dados da Justificativa&lt;/span&gt;" style="ellipse;whiteSpace=wrap;html=1;" vertex="1" parent="1">
          <mxGeometry x="440" y="680" width="120" height="80" as="geometry" />
        </mxCell>
        <mxCell id="UxdINbvIdKSNyS2KtXZi-26" style="edgeStyle=orthogonalEdgeStyle;rounded=0;orthogonalLoop=1;jettySize=auto;html=1;exitX=1;exitY=0.5;exitDx=0;exitDy=0;entryX=0;entryY=0.5;entryDx=0;entryDy=0;dashed=1;" edge="1" parent="1" source="UxdINbvIdKSNyS2KtXZi-23" target="UxdINbvIdKSNyS2KtXZi-24">
          <mxGeometry relative="1" as="geometry" />
        </mxCell>
        <mxCell id="UxdINbvIdKSNyS2KtXZi-28" value="&amp;lt;&amp;lt;INCLUIR&amp;gt;&amp;gt;" style="edgeLabel;html=1;align=center;verticalAlign=middle;resizable=0;points=[];" vertex="1" connectable="0" parent="UxdINbvIdKSNyS2KtXZi-26">
          <mxGeometry x="-0.069" y="2" relative="1" as="geometry">
            <mxPoint x="4" y="1" as="offset" />
          </mxGeometry>
        </mxCell>
        <mxCell id="UxdINbvIdKSNyS2KtXZi-23" value="&lt;span style=&quot;font-size: 14px;&quot;&gt;Adicionar Nova Reposição&lt;/span&gt;" style="ellipse;whiteSpace=wrap;html=1;" vertex="1" parent="1">
          <mxGeometry x="440" y="440" width="120" height="80" as="geometry" />
        </mxCell>
        <mxCell id="UxdINbvIdKSNyS2KtXZi-24" value="&lt;span style=&quot;font-size: 14px;&quot;&gt;Confirmar Reposição&lt;/span&gt;" style="ellipse;whiteSpace=wrap;html=1;" vertex="1" parent="1">
          <mxGeometry x="680" y="440" width="120" height="80" as="geometry" />
        </mxCell>
        <mxCell id="UxdINbvIdKSNyS2KtXZi-30" style="edgeStyle=orthogonalEdgeStyle;rounded=0;orthogonalLoop=1;jettySize=auto;html=1;exitX=0;exitY=0.5;exitDx=0;exitDy=0;entryX=1;entryY=0.5;entryDx=0;entryDy=0;dashed=1;" edge="1" parent="1" source="UxdINbvIdKSNyS2KtXZi-29" target="UxdINbvIdKSNyS2KtXZi-16">
          <mxGeometry relative="1" as="geometry" />
        </mxCell>
        <mxCell id="UxdINbvIdKSNyS2KtXZi-31" value="&amp;lt;&amp;lt;EXTENDER&amp;gt;&amp;gt;" style="edgeLabel;html=1;align=center;verticalAlign=middle;resizable=0;points=[];" vertex="1" connectable="0" parent="UxdINbvIdKSNyS2KtXZi-30">
          <mxGeometry x="0.1071" y="1" relative="1" as="geometry">
            <mxPoint x="10" y="-2" as="offset" />
          </mxGeometry>
        </mxCell>
        <mxCell id="UxdINbvIdKSNyS2KtXZi-29" value="&lt;span style=&quot;font-size: 14px;&quot;&gt;Upar Documento da Justificativa&lt;/span&gt;" style="ellipse;whiteSpace=wrap;html=1;" vertex="1" parent="1">
          <mxGeometry x="680" y="560" width="120" height="80" as="geometry" />
        </mxCell>
        <mxCell id="UxdINbvIdKSNyS2KtXZi-33" style="rounded=0;orthogonalLoop=1;jettySize=auto;html=1;exitX=0;exitY=0.5;exitDx=0;exitDy=0;entryX=1;entryY=0;entryDx=0;entryDy=0;dashed=1;" edge="1" parent="1" source="UxdINbvIdKSNyS2KtXZi-32" target="UxdINbvIdKSNyS2KtXZi-23">
          <mxGeometry relative="1" as="geometry" />
        </mxCell>
        <mxCell id="UxdINbvIdKSNyS2KtXZi-34" value="&amp;lt;&amp;lt;EXTENDER&amp;gt;&amp;gt;" style="edgeLabel;html=1;align=center;verticalAlign=middle;resizable=0;points=[];rotation=-45;" vertex="1" connectable="0" parent="UxdINbvIdKSNyS2KtXZi-33">
          <mxGeometry x="0.0904" y="2" relative="1" as="geometry">
            <mxPoint x="6" y="-9" as="offset" />
          </mxGeometry>
        </mxCell>
        <mxCell id="UxdINbvIdKSNyS2KtXZi-32" value="&lt;span style=&quot;font-size: 14px;&quot;&gt;Alterar Dados Reposição&lt;/span&gt;" style="ellipse;whiteSpace=wrap;html=1;" vertex="1" parent="1">
          <mxGeometry x="670" y="300" width="120" height="80" as="geometry" />
        </mxCell>
        <mxCell id="UxdINbvIdKSNyS2KtXZi-49" style="rounded=0;orthogonalLoop=1;jettySize=auto;html=1;exitX=1;exitY=0.3333333333333333;exitDx=0;exitDy=0;exitPerimeter=0;entryX=0;entryY=0.5;entryDx=0;entryDy=0;endArrow=none;endFill=0;" edge="1" parent="1" source="UxdINbvIdKSNyS2KtXZi-37" target="UxdINbvIdKSNyS2KtXZi-38">
          <mxGeometry relative="1" as="geometry" />
        </mxCell>
        <mxCell id="UxdINbvIdKSNyS2KtXZi-37" value="Coordenador&lt;br&gt;Fatec" style="shape=umlActor;verticalLabelPosition=bottom;verticalAlign=top;html=1;outlineConnect=0;" vertex="1" parent="1">
          <mxGeometry x="40" y="880" width="40" height="80" as="geometry" />
        </mxCell>
        <mxCell id="UxdINbvIdKSNyS2KtXZi-38" value="&lt;span style=&quot;font-size: 14px;&quot;&gt;Consultar Requisições Pendentes&lt;/span&gt;" style="ellipse;whiteSpace=wrap;html=1;" vertex="1" parent="1">
          <mxGeometry x="200" y="880" width="120" height="80" as="geometry" />
        </mxCell>
        <mxCell id="UxdINbvIdKSNyS2KtXZi-43" style="rounded=0;orthogonalLoop=1;jettySize=auto;html=1;exitX=0;exitY=0.5;exitDx=0;exitDy=0;entryX=1;entryY=1;entryDx=0;entryDy=0;dashed=1;" edge="1" parent="1" source="UxdINbvIdKSNyS2KtXZi-39" target="UxdINbvIdKSNyS2KtXZi-38">
          <mxGeometry relative="1" as="geometry" />
        </mxCell>
        <mxCell id="UxdINbvIdKSNyS2KtXZi-44" value="&amp;lt;&amp;lt;EXTENDER&amp;gt;&amp;gt;" style="edgeLabel;html=1;align=center;verticalAlign=middle;resizable=0;points=[];rotation=20;" vertex="1" connectable="0" parent="UxdINbvIdKSNyS2KtXZi-43">
          <mxGeometry x="0.1389" relative="1" as="geometry">
            <mxPoint x="13" y="4" as="offset" />
          </mxGeometry>
        </mxCell>
        <mxCell id="UxdINbvIdKSNyS2KtXZi-58" style="rounded=0;orthogonalLoop=1;jettySize=auto;html=1;exitX=1;exitY=0.5;exitDx=0;exitDy=0;entryX=0;entryY=0;entryDx=0;entryDy=0;dashed=1;" edge="1" parent="1" source="UxdINbvIdKSNyS2KtXZi-39" target="UxdINbvIdKSNyS2KtXZi-51">
          <mxGeometry relative="1" as="geometry" />
        </mxCell>
        <mxCell id="UxdINbvIdKSNyS2KtXZi-59" value="&amp;lt;&amp;lt;EXTENDER&amp;gt;&amp;gt;" style="edgeLabel;html=1;align=center;verticalAlign=middle;resizable=0;points=[];rotation=30;" vertex="1" connectable="0" parent="UxdINbvIdKSNyS2KtXZi-58">
          <mxGeometry x="-0.0813" relative="1" as="geometry">
            <mxPoint as="offset" />
          </mxGeometry>
        </mxCell>
        <mxCell id="UxdINbvIdKSNyS2KtXZi-39" value="&lt;span style=&quot;font-size: 14px;&quot;&gt;Aprovar Requisição&lt;/span&gt;" style="ellipse;whiteSpace=wrap;html=1;" vertex="1" parent="1">
          <mxGeometry x="440" y="960" width="120" height="80" as="geometry" />
        </mxCell>
        <mxCell id="UxdINbvIdKSNyS2KtXZi-45" style="rounded=0;orthogonalLoop=1;jettySize=auto;html=1;exitX=0;exitY=0.5;exitDx=0;exitDy=0;dashed=1;entryX=1;entryY=0;entryDx=0;entryDy=0;" edge="1" parent="1" source="UxdINbvIdKSNyS2KtXZi-40" target="UxdINbvIdKSNyS2KtXZi-38">
          <mxGeometry relative="1" as="geometry">
            <mxPoint x="330" y="910" as="targetPoint" />
          </mxGeometry>
        </mxCell>
        <mxCell id="UxdINbvIdKSNyS2KtXZi-46" value="&amp;lt;&amp;lt;EXTENDER&amp;gt;&amp;gt;" style="edgeLabel;html=1;align=center;verticalAlign=middle;resizable=0;points=[];rotation=353;" vertex="1" connectable="0" parent="UxdINbvIdKSNyS2KtXZi-45">
          <mxGeometry x="0.2832" y="-1" relative="1" as="geometry">
            <mxPoint x="59" y="-8" as="offset" />
          </mxGeometry>
        </mxCell>
        <mxCell id="UxdINbvIdKSNyS2KtXZi-72" style="rounded=0;orthogonalLoop=1;jettySize=auto;html=1;exitX=0.5;exitY=0;exitDx=0;exitDy=0;entryX=1;entryY=0.5;entryDx=0;entryDy=0;dashed=1;" edge="1" parent="1" source="UxdINbvIdKSNyS2KtXZi-40" target="UxdINbvIdKSNyS2KtXZi-19">
          <mxGeometry relative="1" as="geometry" />
        </mxCell>
        <mxCell id="UxdINbvIdKSNyS2KtXZi-73" value="&amp;lt;&amp;lt;EXTENDER&amp;gt;&amp;gt;" style="edgeLabel;html=1;align=center;verticalAlign=middle;resizable=0;points=[];rotation=30;" vertex="1" connectable="0" parent="UxdINbvIdKSNyS2KtXZi-72">
          <mxGeometry relative="1" as="geometry">
            <mxPoint as="offset" />
          </mxGeometry>
        </mxCell>
        <mxCell id="UxdINbvIdKSNyS2KtXZi-40" value="&lt;span style=&quot;font-size: 14px;&quot;&gt;Reprovar Requisição&lt;/span&gt;" style="ellipse;whiteSpace=wrap;html=1;" vertex="1" parent="1">
          <mxGeometry x="640" y="800" width="120" height="80" as="geometry" />
        </mxCell>
        <mxCell id="UxdINbvIdKSNyS2KtXZi-47" style="edgeStyle=orthogonalEdgeStyle;rounded=0;orthogonalLoop=1;jettySize=auto;html=1;exitX=0;exitY=0.5;exitDx=0;exitDy=0;entryX=1;entryY=0.5;entryDx=0;entryDy=0;dashed=1;" edge="1" parent="1" source="UxdINbvIdKSNyS2KtXZi-41" target="UxdINbvIdKSNyS2KtXZi-40">
          <mxGeometry relative="1" as="geometry" />
        </mxCell>
        <mxCell id="UxdINbvIdKSNyS2KtXZi-48" value="&amp;lt;&amp;lt;INCLUIR&amp;gt;&amp;gt;" style="edgeLabel;html=1;align=center;verticalAlign=middle;resizable=0;points=[];" vertex="1" connectable="0" parent="UxdINbvIdKSNyS2KtXZi-47">
          <mxGeometry x="0.0556" y="-2" relative="1" as="geometry">
            <mxPoint x="9" y="2" as="offset" />
          </mxGeometry>
        </mxCell>
        <mxCell id="UxdINbvIdKSNyS2KtXZi-41" value="&lt;span style=&quot;font-size: 14px;&quot;&gt;Comentar Requisição&lt;/span&gt;" style="ellipse;whiteSpace=wrap;html=1;" vertex="1" parent="1">
          <mxGeometry x="880" y="800" width="120" height="80" as="geometry" />
        </mxCell>
        <mxCell id="UxdINbvIdKSNyS2KtXZi-67" style="rounded=0;orthogonalLoop=1;jettySize=auto;html=1;exitX=0;exitY=0.3333333333333333;exitDx=0;exitDy=0;exitPerimeter=0;entryX=1;entryY=0.5;entryDx=0;entryDy=0;endArrow=none;endFill=0;" edge="1" parent="1" source="UxdINbvIdKSNyS2KtXZi-50" target="UxdINbvIdKSNyS2KtXZi-51">
          <mxGeometry relative="1" as="geometry" />
        </mxCell>
        <mxCell id="UxdINbvIdKSNyS2KtXZi-50" value="Administrativo&lt;br&gt;Fatec" style="shape=umlActor;verticalLabelPosition=bottom;verticalAlign=top;html=1;outlineConnect=0;" vertex="1" parent="1">
          <mxGeometry x="1120" y="1079" width="40" height="80" as="geometry" />
        </mxCell>
        <mxCell id="UxdINbvIdKSNyS2KtXZi-51" value="&lt;span style=&quot;font-size: 14px;&quot;&gt;Consultar Requisições Aprovadas&lt;/span&gt;" style="ellipse;whiteSpace=wrap;html=1;" vertex="1" parent="1">
          <mxGeometry x="679" y="1079" width="120" height="80" as="geometry" />
        </mxCell>
        <mxCell id="UxdINbvIdKSNyS2KtXZi-53" style="rounded=0;orthogonalLoop=1;jettySize=auto;html=1;exitX=1;exitY=0.5;exitDx=0;exitDy=0;entryX=0;entryY=0.5;entryDx=0;entryDy=0;dashed=1;" edge="1" parent="1" source="UxdINbvIdKSNyS2KtXZi-52" target="UxdINbvIdKSNyS2KtXZi-51">
          <mxGeometry relative="1" as="geometry" />
        </mxCell>
        <mxCell id="UxdINbvIdKSNyS2KtXZi-54" value="&amp;lt;&amp;lt;INCLUIR&amp;gt;&amp;gt;" style="edgeLabel;html=1;align=center;verticalAlign=middle;resizable=0;points=[];rotation=0;" vertex="1" connectable="0" parent="UxdINbvIdKSNyS2KtXZi-53">
          <mxGeometry x="0.2534" relative="1" as="geometry">
            <mxPoint x="-63" as="offset" />
          </mxGeometry>
        </mxCell>
        <mxCell id="UxdINbvIdKSNyS2KtXZi-52" value="&lt;span style=&quot;font-size: 14px;&quot;&gt;Finalizar Requisição&lt;/span&gt;" style="ellipse;whiteSpace=wrap;html=1;" vertex="1" parent="1">
          <mxGeometry x="200" y="1079" width="120" height="80" as="geometry" />
        </mxCell>
      </root>
    </mxGraphModel>
  </diagram>
</mxfile>
